<?xml version="1.0" encoding="UTF-8" standalone="no"?>
<svg
   xmlns:dc="http://purl.org/dc/elements/1.1/"
   xmlns:cc="http://creativecommons.org/ns#"
   xmlns:rdf="http://www.w3.org/1999/02/22-rdf-syntax-ns#"
   xmlns:svg="http://www.w3.org/2000/svg"
   xmlns="http://www.w3.org/2000/svg"
   xmlns:sodipodi="http://sodipodi.sourceforge.net/DTD/sodipodi-0.dtd"
   xmlns:inkscape="http://www.inkscape.org/namespaces/inkscape"
   id="svg22"
   width="100%"
   height="100%"
   style="fill-rule:evenodd;clip-rule:evenodd;stroke-linejoin:round;stroke-miterlimit:1.41421"
   version="1.1"
   viewBox="0 0 428 220"
   inkscape:version="0.92.3 (2405546, 2018-03-11)"
   sodipodi:docname="HintergrundMontage.svg"
   xml:space="preserve">
    <metadata
   id="metadata28">
        <rdf:RDF>
            <cc:Work
   rdf:about="">
                <dc:format>
                    image/svg+xml
                </dc:format>
                <dc:type
   rdf:resource="http://purl.org/dc/dcmitype/StillImage" />
            </cc:Work>
        </rdf:RDF>
    </metadata>
    <defs
   id="defs26" />
    <sodipodi:namedview
   id="namedview24"
   bordercolor="#666666"
   borderopacity="1"
   gridtolerance="10"
   guidetolerance="10"
   objecttolerance="10"
   pagecolor="#ffffff"
   showgrid="false"
   inkscape:current-layer="svg22"
   inkscape:cx="160.79225"
   inkscape:cy="25.596736"
   inkscape:pageopacity="0"
   inkscape:pageshadow="2"
   inkscape:window-height="2035"
   inkscape:window-maximized="1"
   inkscape:window-width="3840"
   inkscape:window-x="-13"
   inkscape:window-y="-11"
   inkscape:zoom="3.1786133" />
    <g
   id="g20"
   transform="translate(107.61551,6.1077621)">
        <g
   id="g18">
            <path
   id="path2"
   d="m 77.338,5.881 c -8.219,-0.357 -12.972,3.648 -14.425,5.112 -1.273,0.289 -4.101,1.151 -6.931,3.508 -3.365,2.803 -7.422,8.355 -7.636,18.886 -0.077,3.729 -0.249,12.409 9.323,17.542 4.11,6.001 11.01,9.951 18.818,9.951 7.816,0 14.725,-3.958 18.83,-9.974 9.418,-5.077 9.307,-13.713 9.255,-17.43 C 104.365,18.153 92.91,6.548 77.338,5.881 Z m -0.851,51.384 c -10.574,0 -19.175,-8.601 -19.175,-19.173 v -5.341 c 4.957,-1.879 8.014,-7.106 9.515,-10.441 4.087,4.301 14.131,12.993 28.833,13.444 v 2.338 c 0,10.572 -8.601,19.173 -19.173,19.173 z M 98.661,43.329 c 0.396,-1.682 0.614,-3.435 0.614,-5.237 V 35.61 c 0.708,-0.271 1.198,-0.965 1.159,-1.765 -0.048,-0.996 -0.895,-1.756 -1.89,-1.719 C 79.508,33.04 67.782,17.935 67.668,17.783 l -0.004,0.003 c -0.22,-0.293 -0.53,-0.521 -0.908,-0.638 -0.953,-0.295 -1.962,0.243 -2.257,1.196 -0.033,0.108 -3.401,10.788 -10.299,11.465 -0.993,0.097 -1.719,0.982 -1.622,1.974 0.068,0.694 0.519,1.253 1.121,1.498 v 4.811 c 0,1.855 0.228,3.657 0.648,5.384 -2.124,-3.021 -2.459,-6.537 -2.388,-10.014 0.351,-17.171 11.635,-18.947 12.104,-19.013 0.451,-0.058 0.87,-0.291 1.161,-0.638 0.16,-0.191 4.014,-4.657 11.961,-4.319 13.593,0.581 23.591,10.69 23.774,24.036 0.033,2.442 0.083,6.309 -2.298,9.801 z"
   style="fill-rule:nonzero"
   inkscape:connector-curvature="0" />
            <path
   id="path4"
   d="m 77.116,42.903 h -2.292 c -4.369,0 -7.924,3.553 -7.924,7.923 v 2.371 c 0,0.997 0.81,1.806 1.806,1.806 0.999,0 1.809,-0.809 1.809,-1.806 v -2.371 c 0,-2.376 1.933,-4.307 4.309,-4.307 h 2.292 c 2.376,0 4.309,1.931 4.309,4.307 v 2.371 c 0,0.997 0.81,1.806 1.807,1.806 0.998,0 1.809,-0.809 1.809,-1.806 v -2.371 c 0,-4.37 -3.556,-7.923 -7.925,-7.923 z"
   style="fill-rule:nonzero"
   inkscape:connector-curvature="0" />
            <path
   id="path6"
   d="m 78.101,49.905 h -4.262 c -0.996,0 -1.806,0.811 -1.806,1.807 0,0.999 0.81,1.809 1.806,1.809 h 4.262 c 0.999,0 1.806,-0.81 1.806,-1.809 0,-0.996 -0.807,-1.807 -1.806,-1.807 z"
   style="fill-rule:nonzero"
   inkscape:connector-curvature="0" />
            <path
   id="path8"
   d="m 49.855,65.297 c -8.767,8.958 -35.467,35.442 -35.467,35.442 -0.12,0.121 -0.224,0.249 -0.336,0.374 v -1.485 c 0,-2.161 -1.362,-4.006 -3.271,-4.734 0.117,-2.81 0.64,-4.419 1.188,-6.107 0.683,-2.104 1.392,-4.278 1.392,-8.448 0,-4.221 -0.86,-6.452 -1.62,-8.418 -0.706,-1.836 -1.375,-3.57 -1.375,-7.117 0,-3.546 0.669,-5.28 1.377,-7.115 0.758,-1.967 1.618,-4.195 1.618,-8.415 0,-4.219 -0.86,-6.449 -1.618,-8.416 -0.708,-1.836 -1.377,-3.569 -1.377,-7.116 0,-3.568 0.675,-5.437 1.389,-7.417 0.79,-2.185 1.603,-4.447 1.603,-8.645 0,-4.207 -0.816,-6.421 -1.607,-8.562 C 11.17,7.546 10.615,6.045 10.43,3.615 h 134.159 v 1.458 c 0,1.497 -0.459,2.135 -1.154,3.102 -0.821,1.139 -1.838,2.553 -1.838,5.215 0,2.662 1.017,4.076 1.838,5.214 0.695,0.966 1.154,1.605 1.154,3.102 0,1.495 -0.459,2.135 -1.154,3.1 -0.821,1.138 -1.838,2.552 -1.838,5.215 0,2.662 1.017,4.078 1.838,5.214 0.695,0.968 1.154,1.607 1.154,3.102 0,1.497 -0.459,2.137 -1.154,3.102 -0.821,1.138 -1.838,2.555 -1.838,5.217 0,2.662 1.017,4.078 1.838,5.214 0.334,0.465 0.61,0.856 0.812,1.3 -2.754,0.048 -4.982,2.299 -4.982,5.062 0,1.855 1.005,3.474 2.494,4.359 -0.76,0.994 -1.217,2.235 -1.217,3.58 v 12.191 c 0,2.633 1.73,4.868 4.111,5.634 v 9.573 h -0.886 c -0.999,0 -1.807,0.81 -1.807,1.808 0,0.999 0.808,1.807 1.807,1.807 h 5.386 c 0.999,0 1.809,-0.808 1.809,-1.807 0,-0.998 -0.81,-1.808 -1.809,-1.808 h -0.884 v -9.573 c 2.382,-0.766 4.11,-3.001 4.11,-5.634 V 66.171 c 0,-1.345 -0.458,-2.586 -1.218,-3.58 1.489,-0.885 2.494,-2.504 2.494,-4.359 0,-2.793 -2.273,-5.066 -5.068,-5.066 h -0.561 c -0.328,-1.558 -1.049,-2.56 -1.657,-3.408 -0.698,-0.968 -1.157,-1.605 -1.157,-3.102 0,-1.498 0.459,-2.137 1.157,-3.103 0.818,-1.138 1.838,-2.554 1.838,-5.216 0,-2.662 -1.02,-4.076 -1.838,-5.214 -0.698,-0.968 -1.157,-1.605 -1.157,-3.102 0,-1.496 0.459,-2.135 1.157,-3.103 0.818,-1.136 1.838,-2.552 1.838,-5.212 0,-2.662 -1.02,-4.078 -1.838,-5.214 -0.698,-0.968 -1.157,-1.607 -1.157,-3.102 0,-1.498 0.459,-2.135 1.157,-3.103 0.818,-1.138 1.838,-2.552 1.838,-5.214 V 3.615 h 14.195 V 27.19 c 0,0.999 0.809,1.807 1.806,1.807 0.999,0 1.809,-0.808 1.809,-1.807 V 3.615 h 9.143 v 7.413 c 0,0.999 0.81,1.807 1.806,1.807 0.999,0 1.809,-0.808 1.809,-1.807 V 3.615 h 30.231 c 0.998,0 1.808,-0.809 1.808,-1.808 C 210.814,0.81 210.004,0 209.006,0 H 4.024 C 3.025,0 2.216,0.81 2.216,1.807 c 0,0.999 0.809,1.808 1.808,1.808 h 2.785 c 0.195,3.076 0.883,4.945 1.551,6.755 0.712,1.927 1.385,3.749 1.385,7.31 0,3.567 -0.675,5.436 -1.389,7.417 -0.789,2.185 -1.605,4.444 -1.605,8.645 0,4.219 0.859,6.45 1.617,8.416 0.708,1.836 1.377,3.57 1.377,7.114 0,3.547 -0.669,5.281 -1.377,7.116 -0.758,1.967 -1.617,4.197 -1.617,8.416 0,4.218 0.859,6.449 1.617,8.417 0.708,1.836 1.377,3.569 1.377,7.116 0,3.597 -0.589,5.412 -1.215,7.332 -0.612,1.888 -1.243,3.838 -1.366,7.233 -1.898,0.733 -3.248,2.573 -3.248,4.724 v 18.996 c 0,2.158 1.356,4 3.261,4.728 v 2.5 c 0,0.999 0.809,1.81 1.806,1.81 0.999,0 1.809,-0.811 1.809,-1.81 v -2.5 c 1.902,-0.728 3.26,-2.57 3.26,-4.728 v -3.891 c 0.112,0.125 0.216,0.253 0.336,0.372 1.979,1.98 4.581,2.969 7.181,2.969 2.602,0 5.202,-0.989 7.183,-2.969 L 46.66,97.194 v 31.689 h -4.058 c 0.411,-0.68 0.652,-1.473 0.652,-2.322 v -4.253 c 0,-2.484 -2.02,-4.502 -4.502,-4.502 -2.481,0 -4.499,2.018 -4.499,4.502 v 4.253 c 0,0.849 0.241,1.642 0.651,2.322 h -3.901 c 0.745,-0.956 1.193,-2.154 1.193,-3.456 0,-3.108 -2.527,-5.636 -5.635,-5.636 h -7.087 c -3.107,0 -5.634,2.528 -5.634,5.636 0,1.302 0.449,2.5 1.192,3.456 H 6.059 C 2.718,128.883 0,131.601 0,134.942 v 2.552 c 0,3.341 2.718,6.059 6.059,6.059 h 0.692 v 63.102 c 0,0.999 0.81,1.807 1.808,1.807 h 197.805 c 0.999,0 1.809,-0.808 1.809,-1.807 v -63.531 c 2.238,-0.894 3.827,-3.078 3.827,-5.63 v -2.552 c 0,-3.341 -2.718,-6.059 -6.062,-6.059 h -3.49 c 0.625,-0.953 0.992,-2.092 0.992,-3.315 v -1.7 c 0,-3.341 -2.718,-6.062 -6.059,-6.062 h -3.686 c -3.341,0 -6.061,2.721 -6.061,6.062 v 1.7 c 0,1.223 0.367,2.362 0.992,3.315 h -3.31 c 0.86,-0.843 1.398,-2.017 1.398,-3.315 v -3.401 c 0,-2.1 -1.399,-3.873 -3.314,-4.448 0.658,-0.953 1.044,-2.105 1.044,-3.349 0,-3.265 -2.653,-5.919 -5.918,-5.919 h -2.268 c -3.264,0 -5.917,2.654 -5.917,5.919 0,3.262 2.653,5.918 5.917,5.918 h 1.571 c -0.256,0.575 -0.401,1.21 -0.401,1.879 v 3.401 c 0,1.298 0.535,2.472 1.397,3.315 h -6.348 c 0.748,-1.008 1.194,-2.252 1.194,-3.599 v -1.983 c 0,-3.342 -2.718,-6.062 -6.059,-6.062 h -0.262 c 1.088,-0.876 1.786,-2.218 1.786,-3.721 v -2.552 c 0,-2.637 -2.147,-4.784 -4.784,-4.784 -2.64,0 -4.785,2.147 -4.785,4.784 v 2.552 c 0,1.823 1.026,3.412 2.53,4.218 -2.154,0.932 -3.664,3.073 -3.664,5.565 v 1.983 c 0,1.347 0.447,2.591 1.194,3.599 H 106.439 V 97.452 l 17.377,17.289 c 1.979,1.981 4.58,2.972 7.182,2.972 2.6,0 5.202,-0.991 7.181,-2.972 3.96,-3.957 3.96,-10.403 0,-14.363 0,0 -25.994,-25.4 -34.288,-34.288 -2.432,-2.604 -5.611,-4.614 -9.442,-4.614 H 84.382 c -0.924,0 -1.698,0.698 -1.798,1.616 -0.281,2.614 -2.932,4.663 -6.035,4.663 -3.102,0 -5.751,-2.047 -6.032,-4.663 -0.099,-0.918 -0.875,-1.616 -1.798,-1.616 H 58.652 c -3.399,0.002 -6.587,1.564 -8.797,3.821 z m 141.394,58.571 c 0,-1.35 1.099,-2.447 2.446,-2.447 h 3.686 c 1.348,0 2.444,1.097 2.444,2.447 v 1.7 c 0,1.348 -1.096,2.447 -2.444,2.447 h -3.686 c -1.347,0 -2.446,-1.099 -2.446,-2.447 z m -10.206,-1.701 c 0,-0.567 0.461,-1.028 1.028,-1.028 0.566,0 1.028,0.461 1.028,1.028 v 3.401 c 0,0.567 -0.462,1.028 -1.028,1.028 -0.567,0 -1.028,-0.461 -1.028,-1.028 z m -7.088,-7.797 c 0,-1.271 1.033,-2.303 2.303,-2.303 h 2.268 c 1.271,0 2.305,1.032 2.305,2.303 0,1.27 -1.034,2.303 -2.305,2.303 h -2.268 c -1.27,0 -2.303,-1.033 -2.303,-2.303 z m -10.774,-3.402 c 0,-0.646 0.525,-1.171 1.171,-1.171 0.643,0 1.169,0.525 1.169,1.171 v 2.55 c 0,0.646 -0.526,1.171 -1.169,1.171 -0.646,0 -1.171,-0.525 -1.171,-1.171 z m -1.134,12.333 c 0,-1.35 1.098,-2.446 2.446,-2.446 h 3.119 c 1.348,0 2.444,1.096 2.444,2.446 v 1.985 c 0,1.348 -1.096,2.444 -2.444,2.444 h -3.119 c -1.348,0 -2.446,-1.096 -2.446,-2.444 z M 148.765,78.36 c 0,1.271 -1.034,2.305 -2.305,2.305 -1.269,0 -2.302,-1.034 -2.302,-2.305 V 66.169 c 0,-1.269 1.033,-2.303 2.302,-2.303 1.271,0 2.305,1.034 2.305,2.303 z m 1.275,-20.13 c 0,0.802 -0.652,1.454 -1.453,1.454 h -4.253 c -0.8,0 -1.452,-0.652 -1.452,-1.454 0,-0.799 0.652,-1.451 1.452,-1.451 h 4.253 c 0.801,0 1.453,0.652 1.453,1.451 z M 7.532,118.622 V 99.628 c 0,-0.802 0.652,-1.453 1.451,-1.453 0.802,0 1.454,0.651 1.454,1.453 v 18.994 c 0,0.802 -0.652,1.454 -1.454,1.454 -0.799,0 -1.451,-0.652 -1.451,-1.454 z m 30.336,3.686 c 0,-0.488 0.396,-0.887 0.884,-0.887 0.49,0 0.887,0.399 0.887,0.887 v 4.253 c 0,0.488 -0.397,0.886 -0.887,0.886 -0.488,0 -0.884,-0.398 -0.884,-0.886 z m -18.394,1.099 h 7.089 c 1.113,0 2.019,0.905 2.019,2.02 0,1.113 -0.906,2.02 -2.019,2.02 h -7.089 c -1.113,0 -2.021,-0.907 -2.021,-2.02 0,-1.115 0.908,-2.02 2.021,-2.02 z m 86.965,-49.656 8.269,8.27 -8.269,8.269 z m 29.184,38.436 c -1.236,1.235 -2.878,1.915 -4.625,1.915 -1.748,0 -3.391,-0.68 -4.63,-1.919 l -18.4,-18.309 9.296,-9.299 18.359,18.359 c 2.55,2.552 2.55,6.701 0,9.253 z M 46.66,91.1 37.901,82.339 46.66,73.578 Z m -20.465,21.448 c -1.235,1.236 -2.878,1.915 -4.626,1.915 -1.746,0 -3.389,-0.679 -4.624,-1.915 -2.553,-2.552 -2.553,-6.701 0,-9.252 l 18.4,-18.401 9.251,9.253 z m 76.629,16.335 H 50.275 v -10.977 h 22.312 c 0.999,0 1.807,-0.808 1.807,-1.807 0,-0.998 -0.808,-1.806 -1.807,-1.806 H 50.275 V 73.468 c 0,-4.618 3.759,-8.377 8.377,-8.377 h 8.611 c 1.014,3.157 3.904,5.52 7.48,6.124 v 33.089 c 0,0.999 0.81,1.809 1.806,1.809 0.999,0 1.809,-0.81 1.809,-1.809 V 71.215 c 3.574,-0.604 6.466,-2.967 7.478,-6.124 h 8.611 c 2.507,0 4.751,1.111 6.288,2.862 0.077,0.132 0.166,0.262 0.28,0.375 l 0.127,0.125 c 1.05,1.4 1.682,3.134 1.682,5.015 z m -92.458,75.963 v -7.016 h 33.065 c 0.999,0 1.809,-0.808 1.809,-1.807 0,-0.999 -0.81,-1.809 -1.809,-1.809 H 10.366 v -5.315 h 128.751 c 0.999,0 1.809,-0.808 1.809,-1.807 0,-0.999 -0.81,-1.807 -1.809,-1.807 H 10.366 v -19.777 h 21.158 c 0.997,0 1.806,-0.808 1.806,-1.806 0,-0.999 -0.809,-1.807 -1.806,-1.807 H 10.366 v -18.34 h 160.967 v 15.043 c 0,0.999 0.81,1.808 1.806,1.808 0.999,0 1.809,-0.809 1.809,-1.808 v -15.043 h 13.822 v 43.537 c 0,0.999 0.807,1.807 1.806,1.807 0.999,0 1.807,-0.808 1.807,-1.807 v -43.537 h 12.175 v 61.291 z m 195.572,-72.348 c 1.35,0 2.447,1.096 2.447,2.444 v 2.552 c 0,1.35 -1.097,2.446 -2.447,2.446 H 6.059 c -1.347,0 -2.444,-1.096 -2.444,-2.446 v -2.552 c 0,-1.348 1.097,-2.444 2.444,-2.444 z"
   style="fill-rule:nonzero"
   inkscape:connector-curvature="0" />
            <path
   id="path10"
   d="m 81.705,72.444 c -0.996,0 -1.806,0.81 -1.806,1.809 v 5.102 c 0,0.999 0.81,1.809 1.806,1.809 0.999,0 1.809,-0.81 1.809,-1.809 v -5.102 c 0,-0.999 -0.81,-1.809 -1.809,-1.809 z"
   style="fill-rule:nonzero"
   inkscape:connector-curvature="0" />
            <path
   id="path12"
   d="m 81.705,84.565 c -0.996,0 -1.806,0.81 -1.806,1.809 v 3.968 c 0,0.999 0.81,1.807 1.806,1.807 0.999,0 1.809,-0.808 1.809,-1.807 v -3.968 c 0,-0.999 -0.81,-1.809 -1.809,-1.809 z"
   style="fill-rule:nonzero"
   inkscape:connector-curvature="0" />
            <path
   id="path14"
   d="m 81.705,96.26 c -0.996,0 -1.806,0.81 -1.806,1.809 v 3.685 c 0,0.999 0.81,1.807 1.806,1.807 0.999,0 1.809,-0.808 1.809,-1.807 v -3.685 c 0,-0.999 -0.81,-1.809 -1.809,-1.809 z"
   style="fill-rule:nonzero"
   inkscape:connector-curvature="0" />
            <path
   id="path16"
   d="m 68.495,72.318 h -13.61 c -0.997,0 -1.806,0.81 -1.806,1.806 v 5.671 c 0,0.999 0.809,1.809 1.806,1.809 h 13.61 c 0.999,0 1.806,-0.81 1.806,-1.809 v -5.671 c 0,-0.996 -0.807,-1.806 -1.806,-1.806 z m -1.809,5.67 h -9.993 v -2.055 h 9.993 z"
   style="fill-rule:nonzero"
   inkscape:connector-curvature="0" />
        </g>
    </g>
</svg>