<?xml version="1.0" encoding="UTF-8" standalone="no"?>
<svg
   xmlns:dc="http://purl.org/dc/elements/1.1/"
   xmlns:cc="http://creativecommons.org/ns#"
   xmlns:rdf="http://www.w3.org/1999/02/22-rdf-syntax-ns#"
   xmlns:svg="http://www.w3.org/2000/svg"
   xmlns="http://www.w3.org/2000/svg"
   xmlns:sodipodi="http://sodipodi.sourceforge.net/DTD/sodipodi-0.dtd"
   xmlns:inkscape="http://www.inkscape.org/namespaces/inkscape"
   id="svg10"
   width="100%"
   height="100%"
   style="fill-rule:evenodd;clip-rule:evenodd;stroke-linecap:round;stroke-linejoin:round;stroke-miterlimit:1.5"
   version="1.1"
   viewBox="0 0 428 220"
   inkscape:version="0.92.3 (2405546, 2018-03-11)"
   sodipodi:docname="HintergrundBHX.svg"
   xml:space="preserve">
    <metadata
   id="metadata16">
        <rdf:RDF>
            <cc:Work
   rdf:about="">
                <dc:format>
                    image/svg+xml
                </dc:format>
                <dc:type
   rdf:resource="http://purl.org/dc/dcmitype/StillImage" />
            </cc:Work>
        </rdf:RDF>
    </metadata>
    <defs
   id="defs14" />
    <sodipodi:namedview
   id="namedview12"
   bordercolor="#666666"
   borderopacity="1"
   gridtolerance="10"
   guidetolerance="10"
   objecttolerance="10"
   pagecolor="#ffffff"
   showgrid="false"
   inkscape:current-layer="svg10"
   inkscape:cx="208.7371"
   inkscape:cy="92.855139"
   inkscape:pageopacity="0"
   inkscape:pageshadow="2"
   inkscape:window-height="2035"
   inkscape:window-maximized="1"
   inkscape:window-width="3840"
   inkscape:window-x="-13"
   inkscape:window-y="-11"
   inkscape:zoom="6.3572265" />
    <circle
   id="circle2"
   cx="213.75"
   cy="193.453"
   r="6.073"
   style="fill:none;stroke:#fff;stroke-width:2.5px" />
    <circle
   id="circle4"
   cx="213.75"
   cy="106.017"
   r="1.517"
   style="fill:#fff" />
    <path
   id="path6"
   d="m 427.01063,105.54101 c 0,-4.83 -3.921,-8.749999 -8.75,-8.749999 H 9.7606254 c -4.8290001,0 -8.7500001,3.919999 -8.7500001,8.749999 v 17.50001 c 0,4.829 3.921,8.75 8.7500001,8.75 H 418.26063 c 4.829,0 8.75,-3.921 8.75,-8.75 z"
   style="stroke:#ffffff;stroke-width:1.5px"
   inkscape:connector-curvature="0" />
    <path
   id="path8"
   d="m 308.37717,59.70339 c 0,-25.94 -21.06,-47 -47,-47 h -94 c -25.94,0 -47,21.06 -47,47 v 100 c 0,25.94 21.06,47 47,47 h 94 c 25.94,0 47,-21.06 47,-47 z"
   style="stroke:#ffffff;stroke-width:8.5px"
   inkscape:connector-curvature="0" />
</svg>