<?xml version="1.0" encoding="UTF-8" standalone="no"?>
<svg
   xmlns:dc="http://purl.org/dc/elements/1.1/"
   xmlns:cc="http://creativecommons.org/ns#"
   xmlns:rdf="http://www.w3.org/1999/02/22-rdf-syntax-ns#"
   xmlns:svg="http://www.w3.org/2000/svg"
   xmlns="http://www.w3.org/2000/svg"
   xmlns:sodipodi="http://sodipodi.sourceforge.net/DTD/sodipodi-0.dtd"
   xmlns:inkscape="http://www.inkscape.org/namespaces/inkscape"
   id="svg8"
   width="100%"
   height="100%"
   style="fill-rule:evenodd;clip-rule:evenodd;stroke-linecap:round;stroke-linejoin:round;stroke-miterlimit:1.5"
   version="1.1"
   viewBox="0 0  428 220"
   inkscape:version="0.92.3 (2405546, 2018-03-11)"
   sodipodi:docname="HintergrundKAM.svg"
   xml:space="preserve">
    <metadata
   id="metadata14">
        <rdf:RDF>
            <cc:Work
   rdf:about="">
                <dc:format>
                    image/svg+xml
                </dc:format>
                <dc:type
   rdf:resource="http://purl.org/dc/dcmitype/StillImage" />
            </cc:Work>
        </rdf:RDF>
    </metadata>
    <defs
   id="defs12" />
    <sodipodi:namedview
   id="namedview10"
   bordercolor="#666666"
   borderopacity="1"
   gridtolerance="10"
   guidetolerance="10"
   objecttolerance="10"
   pagecolor="#ffffff"
   showgrid="false"
   inkscape:current-layer="svg8"
   inkscape:cx="192.15888"
   inkscape:cy="54.496624"
   inkscape:pageopacity="0"
   inkscape:pageshadow="2"
   inkscape:window-height="2035"
   inkscape:window-maximized="1"
   inkscape:window-width="3840"
   inkscape:window-x="-13"
   inkscape:window-y="-11"
   inkscape:zoom="4.6502465" />
    <circle
   id="circle2"
   cx="213.75"
   cy="64.215"
   r="1.517"
   style="fill:#fff" />
    <path
   id="path4"
   d="m 427.14319,117.00654 c 0,-4.829 -3.921,-8.74999 -8.75,-8.74999 H 9.8931892 c -4.8289998,0 -8.7499998,3.92099 -8.7499998,8.74999 v 17.5 c 0,4.829 3.921,8.75 8.7499998,8.75 H 418.39319 c 4.829,0 8.75,-3.921 8.75,-8.75 z"
   style="stroke:#ffffff;stroke-width:1.5px"
   inkscape:connector-curvature="0" />
    <path
   id="path6"
   d="m 391.16907,75.14049 c 0,-8.279 -6.721,-15 -15,-15 H 58.169065 c -8.279,0 -15,6.721 -15,15 v 30 c 0,8.279 6.721,15 15,15 H 376.16907 c 8.279,0 15,-6.721 15,-15 z"
   style="stroke:#ffffff;stroke-width:8.5px"
   inkscape:connector-curvature="0" />
</svg>