<?xml version="1.0" encoding="UTF-8" standalone="no"?>
<svg
   xmlns:dc="http://purl.org/dc/elements/1.1/"
   xmlns:cc="http://creativecommons.org/ns#"
   xmlns:rdf="http://www.w3.org/1999/02/22-rdf-syntax-ns#"
   xmlns:svg="http://www.w3.org/2000/svg"
   xmlns="http://www.w3.org/2000/svg"
   xmlns:sodipodi="http://sodipodi.sourceforge.net/DTD/sodipodi-0.dtd"
   xmlns:inkscape="http://www.inkscape.org/namespaces/inkscape"
   id="svg4"
   width="100%"
   height="100%"
   style="fill-rule:evenodd;clip-rule:evenodd;stroke-linecap:round;stroke-linejoin:round;stroke-miterlimit:1.5"
   version="1.1"
   viewBox="0 0 428 220"
   inkscape:version="0.92.3 (2405546, 2018-03-11)"
   sodipodi:docname="HintergrundSäge.svg"
   xml:space="preserve">
    <metadata
   id="metadata10">
        <rdf:RDF>
            <cc:Work
   rdf:about="">
                <dc:format>
                    image/svg+xml
                </dc:format>
                <dc:type
   rdf:resource="http://purl.org/dc/dcmitype/StillImage" />
            </cc:Work>
        </rdf:RDF>
    </metadata>
    <defs
   id="defs8" />
    <sodipodi:namedview
   id="namedview6"
   bordercolor="#666666"
   borderopacity="1"
   gridtolerance="10"
   guidetolerance="10"
   objecttolerance="10"
   pagecolor="#ffffff"
   showgrid="false"
   inkscape:current-layer="svg4"
   inkscape:cx="425.40914"
   inkscape:cy="-31.910176"
   inkscape:pageopacity="0"
   inkscape:pageshadow="2"
   inkscape:window-height="2035"
   inkscape:window-maximized="1"
   inkscape:window-width="3840"
   inkscape:window-x="-13"
   inkscape:window-y="-11"
   inkscape:zoom="2.3251232" />
    <path
   id="path2"
   d="m 305.76809,51.930085 c 6.028,0 10.922,4.153 10.922,9.267 v 89.570995 c 0,5.115 -4.894,9.267 -10.922,9.267 h -144.35 c -6.027,0 -10.921,-4.152 -10.921,-9.267 v -2.048 h 5.981 c 1.338,0 2.423,-0.921 2.423,-2.056 v -19.873 c 0,-1.134 -1.085,-2.056 -2.423,-2.056 h -5.981 v 23.985 h -45.394 c -1.337,0 -2.423,-0.921 -2.423,-2.056 v -19.873 c 0,-1.134 1.086,-2.056 2.423,-2.056 h 45.394 v -6.76 h 5.981 c 1.338,0 2.423,-0.921 2.423,-2.056 V 96.046085 c 0,-1.134 -1.085,-2.056 -2.423,-2.056 h -5.981 v 23.984995 h -45.394 c -1.337,0 -2.423,-0.921 -2.423,-2.056 V 96.046085 c 0,-1.134 1.086,-2.056 2.423,-2.056 h 45.394 v -6.76 h 5.981 c 1.338,0 2.423,-0.921 2.423,-2.056 v -19.873 c 0,-1.134 -1.085,-2.056 -2.423,-2.056 h -5.981 v 23.985 h -45.394 c -1.337,0 -2.423,-0.921 -2.423,-2.056 v -19.873 c 0,-1.134 1.086,-2.056 2.423,-2.056 h 45.394 v -2.048 c 0,-5.114 4.894,-9.267 10.921,-9.267 z"
   style="stroke:#ffffff;stroke-width:1.5px"
   inkscape:connector-curvature="0" />
</svg>