<?xml version="1.0" encoding="UTF-8" standalone="no"?>
<svg xmlns="http://www.w3.org/2000/svg" xmlns:cc="http://creativecommons.org/ns#" xmlns:dc="http://purl.org/dc/elements/1.1/" xmlns:inkscape="http://www.inkscape.org/namespaces/inkscape" xmlns:rdf="http://www.w3.org/1999/02/22-rdf-syntax-ns#" xmlns:sodipodi="http://sodipodi.sourceforge.net/DTD/sodipodi-0.dtd" xmlns:svg="http://www.w3.org/2000/svg" id="svg28" width="100%" height="100%" style="fill-rule:evenodd;clip-rule:evenodd;stroke-linejoin:round;stroke-miterlimit:1.41421" version="1.1" viewBox="0 0 428 220" inkscape:version="0.92.3 (2405546, 2018-03-11)" sodipodi:docname="HintergrundScanner.svg" xml:space="preserve">
    <metadata id="metadata34">
        <rdf:RDF>
            <cc:Work rdf:about="">
                <dc:format>
                    image/svg+xml
                </dc:format>
                <dc:type rdf:resource="http://purl.org/dc/dcmitype/StillImage"/>
            </cc:Work>
        </rdf:RDF>
    </metadata>
    <defs id="defs32"/>
    <sodipodi:namedview id="namedview30" bordercolor="#666666" borderopacity="1" gridtolerance="10" guidetolerance="10" objecttolerance="10" pagecolor="#ffffff" showgrid="false" inkscape:current-layer="svg28" inkscape:cx="-16.358224" inkscape:cy="-9.0852301" inkscape:pageopacity="0" inkscape:pageshadow="2" inkscape:window-height="2035" inkscape:window-maximized="1" inkscape:window-width="3840" inkscape:window-x="-13" inkscape:window-y="-11" inkscape:zoom="3.2882207"/>
    <g id="g26" transform="matrix(2.7649199,0,0,2.9726528,150.65934,52.303317)">
        <g id="g14">
            <rect id="rect2" width="3.319" height="22.136" x="5.8070002" y="6.1220002"/>
            <rect id="rect4" width="3.319" height="22.136" x="19.127001" y="6.1220002"/>
            <rect id="rect6" width="3.319" height="22.136" x="24.202999" y="6.1220002"/>
            <rect id="rect8" width="3.319" height="22.136" x="40.672001" y="6.1220002"/>
            <rect id="rect10" width="6.2690001" height="22.136" x="11.102" y="6.1220002"/>
            <rect id="rect12" width="8.0939999" height="22.136" x="29.716999" y="6.1220002"/>
        </g>
        <g id="g24">
            <path id="path16" d="m 3.631,2.421 c -0.668,0 -1.21,0.542 -1.21,1.21 v 7.03 H 0 c 0,0 0,-5.095 0,-8.24 C 0,1.084 1.084,0 2.421,0 h 8.24 v 2.421 z" inkscape:connector-curvature="0"/>
            <path id="path18" d="m 46.167,2.421 c 0.669,0 1.211,0.542 1.211,1.21 v 7.03 h 2.42 c 0,0 0,-5.095 0,-8.24 C 49.798,1.084 48.715,0 47.378,0 h -8.24 v 2.421 z" inkscape:connector-curvature="0"/>
            <path id="path20" d="m 3.631,31.958 c -0.668,0 -1.21,-0.542 -1.21,-1.21 v -7.03 H 0 c 0,0 0,5.095 0,8.24 0,1.337 1.084,2.421 2.421,2.421 h 8.24 v -2.421 z" inkscape:connector-curvature="0"/>
            <path id="path22" d="m 46.167,31.958 c 0.669,0 1.211,-0.542 1.211,-1.21 v -7.03 h 2.42 c 0,0 0,5.095 0,8.24 0,1.337 -1.083,2.421 -2.42,2.421 h -8.24 v -2.421 z" inkscape:connector-curvature="0"/>
        </g>
    </g>
</svg>
