<?xml version="1.0" encoding="UTF-8" standalone="no"?>
<svg
   xmlns:serif="http://www.serif.com/"
   xmlns:dc="http://purl.org/dc/elements/1.1/"
   xmlns:cc="http://creativecommons.org/ns#"
   xmlns:rdf="http://www.w3.org/1999/02/22-rdf-syntax-ns#"
   xmlns:svg="http://www.w3.org/2000/svg"
   xmlns="http://www.w3.org/2000/svg"
   xmlns:sodipodi="http://sodipodi.sourceforge.net/DTD/sodipodi-0.dtd"
   xmlns:inkscape="http://www.inkscape.org/namespaces/inkscape"
   id="svg61"
   width="100%"
   height="100%"
   style="fill-rule:evenodd;clip-rule:evenodd;stroke-linejoin:round;stroke-miterlimit:1.41421"
   version="1.1"
   viewBox="0 0  428 220"
   inkscape:version="0.92.3 (2405546, 2018-03-11)"
   sodipodi:docname="HintergrundSchredder.svg"
   xml:space="preserve">
    <metadata
   id="metadata67">
        <rdf:RDF>
            <cc:Work
   rdf:about="">
                <dc:format>
                    image/svg+xml
                </dc:format>
                <dc:type
   rdf:resource="http://purl.org/dc/dcmitype/StillImage" />
            </cc:Work>
        </rdf:RDF>
    </metadata>
    <defs
   id="defs65" />
    <sodipodi:namedview
   id="namedview63"
   bordercolor="#666666"
   borderopacity="1"
   gridtolerance="10"
   guidetolerance="10"
   objecttolerance="10"
   pagecolor="#ffffff"
   showgrid="false"
   inkscape:current-layer="svg61"
   inkscape:cx="296.7229"
   inkscape:cy="83.155998"
   inkscape:pageopacity="0"
   inkscape:pageshadow="2"
   inkscape:window-height="2035"
   inkscape:window-maximized="1"
   inkscape:window-width="3840"
   inkscape:window-x="-13"
   inkscape:window-y="-11"
   inkscape:zoom="3.2882208" />
    <rect
   id="ICON-Schredder"
   width="544.98"
   height="800"
   x="0"
   y="0"
   style="fill:none"
   serif:id="ICON Schredder" />
    <rect
   id="rect7"
   width="19"
   height="3"
   x="305"
   y="360"
   style="stroke:#fff;stroke-width:5px;stroke-linecap:round;stroke-miterlimit:1.5" />
    <path
   id="path15"
   d="M334.09,400c0,-5.775 4.688,-10.463 10.463,-10.463c5.775,0 10.464,4.688 10.464,10.463c0,5.775 -4.689,10.463 -10.464,10.463c-5.775,0 -10.463,-4.688 -10.463,-10.463Z"
   style="fill:none;stroke:#fff;stroke-width:2.5px;stroke-linecap:round;stroke-miterlimit:1.5" />
    <path
   id="path17"
   d="M191.304,400c0,-1.443 1.171,-2.614 2.613,-2.614c1.443,0 2.614,1.171 2.614,2.614c0,1.443 -1.171,2.614 -2.614,2.614c-1.442,0 -2.613,-1.171 -2.613,-2.614Z"
   style="fill:#fff" />
    <path
   id="path3-3"
   d="m 136.23731,46.95227 c -0.795,0 -1.558,0.316 -2.121,0.878 -0.562,0.563 -0.879,1.326 -0.879,2.122 0,16.813 0,99.185 0,115.998 0,0.796 0.317,1.559 0.879,2.122 0.563,0.562 1.326,0.878 2.121,0.878 21.024,0 146.048,0 167.072,0 0.796,0 1.559,-0.316 2.121,-0.878 0.563,-0.563 0.879,-1.326 0.879,-2.122 0,-16.813 0,-99.185 0,-115.998 0,-0.796 -0.316,-1.559 -0.879,-2.122 -0.562,-0.562 -1.325,-0.878 -2.121,-0.878 -21.024,0 -146.048,0 -167.072,0 z"
   style="clip-rule:evenodd;fill-rule:evenodd;stroke-linejoin:round;stroke-miterlimit:1.41420996"
   inkscape:connector-curvature="0" />
    <path
   id="path5-2"
   d="m 148.79231,56.01627 v 103.87 h 129.289 v -103.87 z"
   style="clip-rule:evenodd;fill:#ffffff;fill-rule:evenodd;stroke:#000000;stroke-width:1.5px;stroke-linejoin:round;stroke-miterlimit:1.41420996"
   inkscape:connector-curvature="0" />
    <rect
   id="rect7-3"
   width="19"
   height="3"
   x="252.28329"
   y="67.951279"
   style="clip-rule:evenodd;fill-rule:evenodd;stroke:#ffffff;stroke-width:5px;stroke-linecap:round;stroke-linejoin:round;stroke-miterlimit:1.5" />
    <rect
   id="rect9-8"
   width="39"
   height="3"
   x="229.28331"
   y="93.701263"
   style="clip-rule:evenodd;fill-rule:evenodd;stroke:#000000;stroke-width:5px;stroke-linecap:round;stroke-linejoin:round;stroke-miterlimit:1.5" />
    <rect
   id="rect11-8"
   width="24"
   height="3"
   x="229.28331"
   y="119.20126"
   style="clip-rule:evenodd;fill-rule:evenodd;stroke:#000000;stroke-width:5px;stroke-linecap:round;stroke-linejoin:round;stroke-miterlimit:1.5" />
    <rect
   id="rect13-9"
   width="17"
   height="3"
   x="229.28331"
   y="144.70128"
   style="clip-rule:evenodd;fill-rule:evenodd;stroke:#000000;stroke-width:5px;stroke-linecap:round;stroke-linejoin:round;stroke-miterlimit:1.5" />
    <path
   id="path15-7"
   d="m 281.37331,107.95127 c 0,-5.775 4.688,-10.463 10.463,-10.463 5.775,0 10.464,4.688 10.464,10.463 0,5.775 -4.689,10.463 -10.464,10.463 -5.775,0 -10.463,-4.688 -10.463,-10.463 z"
   style="clip-rule:evenodd;fill:none;fill-rule:evenodd;stroke:#ffffff;stroke-width:2.5px;stroke-linecap:round;stroke-linejoin:round;stroke-miterlimit:1.5"
   inkscape:connector-curvature="0" />
    <path
   id="path17-5"
   d="m 138.58731,107.95127 c 0,-1.443 1.171,-2.614 2.613,-2.614 1.443,0 2.614,1.171 2.614,2.614 0,1.443 -1.171,2.614 -2.614,2.614 -1.442,0 -2.613,-1.171 -2.613,-2.614 z"
   style="clip-rule:evenodd;fill:#ffffff;fill-rule:evenodd;stroke-linejoin:round;stroke-miterlimit:1.41420996"
   inkscape:connector-curvature="0" />
    <path
   id="path19-2"
   d="m 153.28331,67.95127 h 10"
   style="clip-rule:evenodd;fill:none;fill-rule:evenodd;stroke:#000000;stroke-width:5px;stroke-linecap:round;stroke-linejoin:round;stroke-miterlimit:1.5"
   inkscape:connector-curvature="0" />
    <path
   id="path21-2"
   d="m 153.28331,76.95127 h 10"
   style="clip-rule:evenodd;fill:none;fill-rule:evenodd;stroke:#000000;stroke-width:5px;stroke-linecap:round;stroke-linejoin:round;stroke-miterlimit:1.5"
   inkscape:connector-curvature="0" />
    <path
   id="path23-8"
   d="m 153.28331,85.95127 h 10"
   style="clip-rule:evenodd;fill:none;fill-rule:evenodd;stroke:#000000;stroke-width:5px;stroke-linecap:round;stroke-linejoin:round;stroke-miterlimit:1.5"
   inkscape:connector-curvature="0" />
    <path
   id="path25-9"
   d="m 153.28331,94.95127 h 10"
   style="clip-rule:evenodd;fill:none;fill-rule:evenodd;stroke:#000000;stroke-width:5px;stroke-linecap:round;stroke-linejoin:round;stroke-miterlimit:1.5"
   inkscape:connector-curvature="0" />
    <path
   id="path27-0"
   d="m 153.28331,103.95127 h 10"
   style="clip-rule:evenodd;fill:none;fill-rule:evenodd;stroke:#000000;stroke-width:5px;stroke-linecap:round;stroke-linejoin:round;stroke-miterlimit:1.5"
   inkscape:connector-curvature="0" />
    <path
   id="path29-8"
   d="m 153.28331,112.95127 h 10"
   style="clip-rule:evenodd;fill:none;fill-rule:evenodd;stroke:#000000;stroke-width:5px;stroke-linecap:round;stroke-linejoin:round;stroke-miterlimit:1.5"
   inkscape:connector-curvature="0" />
    <path
   id="path31-7"
   d="m 153.28331,121.95127 h 10"
   style="clip-rule:evenodd;fill:none;fill-rule:evenodd;stroke:#000000;stroke-width:5px;stroke-linecap:round;stroke-linejoin:round;stroke-miterlimit:1.5"
   inkscape:connector-curvature="0" />
    <path
   id="path33-2"
   d="m 153.28331,130.95127 h 10"
   style="clip-rule:evenodd;fill:none;fill-rule:evenodd;stroke:#000000;stroke-width:5px;stroke-linecap:round;stroke-linejoin:round;stroke-miterlimit:1.5"
   inkscape:connector-curvature="0" />
    <path
   id="path35-7"
   d="m 153.28331,139.95127 h 10"
   style="clip-rule:evenodd;fill:none;fill-rule:evenodd;stroke:#000000;stroke-width:5px;stroke-linecap:round;stroke-linejoin:round;stroke-miterlimit:1.5"
   inkscape:connector-curvature="0" />
    <path
   id="path37-6"
   d="m 153.28331,148.95127 h 10"
   style="clip-rule:evenodd;fill:none;fill-rule:evenodd;stroke:#000000;stroke-width:5px;stroke-linecap:round;stroke-linejoin:round;stroke-miterlimit:1.5"
   inkscape:connector-curvature="0" />
    <path
   id="path39-3"
   d="m 172.28331,67.95127 h 39"
   style="clip-rule:evenodd;fill:none;fill-rule:evenodd;stroke:#000000;stroke-width:5px;stroke-linecap:round;stroke-linejoin:round;stroke-miterlimit:1.5"
   inkscape:connector-curvature="0" />
    <path
   id="path41-3"
   d="m 172.28331,76.95127 h 39"
   style="clip-rule:evenodd;fill:none;fill-rule:evenodd;stroke:#000000;stroke-width:5px;stroke-linecap:round;stroke-linejoin:round;stroke-miterlimit:1.5"
   inkscape:connector-curvature="0" />
    <path
   id="path43-5"
   d="m 172.28331,85.95127 h 39"
   style="clip-rule:evenodd;fill:none;fill-rule:evenodd;stroke:#000000;stroke-width:5px;stroke-linecap:round;stroke-linejoin:round;stroke-miterlimit:1.5"
   inkscape:connector-curvature="0" />
    <path
   id="path45-7"
   d="m 172.28331,94.95127 h 39"
   style="clip-rule:evenodd;fill:none;fill-rule:evenodd;stroke:#000000;stroke-width:5px;stroke-linecap:round;stroke-linejoin:round;stroke-miterlimit:1.5"
   inkscape:connector-curvature="0" />
    <path
   id="path47-4"
   d="m 172.28331,103.95127 h 39"
   style="clip-rule:evenodd;fill:none;fill-rule:evenodd;stroke:#000000;stroke-width:5px;stroke-linecap:round;stroke-linejoin:round;stroke-miterlimit:1.5"
   inkscape:connector-curvature="0" />
    <path
   id="path49-4"
   d="m 172.28331,112.95127 h 39"
   style="clip-rule:evenodd;fill:none;fill-rule:evenodd;stroke:#000000;stroke-width:5px;stroke-linecap:round;stroke-linejoin:round;stroke-miterlimit:1.5"
   inkscape:connector-curvature="0" />
    <path
   id="path51-2"
   d="m 172.28331,121.95127 h 39"
   style="clip-rule:evenodd;fill:none;fill-rule:evenodd;stroke:#000000;stroke-width:5px;stroke-linecap:round;stroke-linejoin:round;stroke-miterlimit:1.5"
   inkscape:connector-curvature="0" />
    <path
   id="path53-5"
   d="m 172.28331,130.95127 h 39"
   style="clip-rule:evenodd;fill:none;fill-rule:evenodd;stroke:#000000;stroke-width:5px;stroke-linecap:round;stroke-linejoin:round;stroke-miterlimit:1.5"
   inkscape:connector-curvature="0" />
    <path
   id="path55-9"
   d="m 172.28331,139.95127 h 39"
   style="clip-rule:evenodd;fill:none;fill-rule:evenodd;stroke:#000000;stroke-width:5px;stroke-linecap:round;stroke-linejoin:round;stroke-miterlimit:1.5"
   inkscape:connector-curvature="0" />
    <path
   id="path57-2"
   d="m 172.28331,148.95127 h 39"
   style="clip-rule:evenodd;fill:none;fill-rule:evenodd;stroke:#000000;stroke-width:5px;stroke-linecap:round;stroke-linejoin:round;stroke-miterlimit:1.5"
   inkscape:connector-curvature="0" />
    <rect
   id="rect59-1"
   width="29"
   height="3"
   x="229.28331"
   y="68.201279"
   style="clip-rule:evenodd;fill-rule:evenodd;stroke:#000000;stroke-width:5px;stroke-linecap:round;stroke-linejoin:round;stroke-miterlimit:1.5" />
</svg>