<?xml version="1.0" encoding="UTF-8" standalone="no"?>
<svg
   xmlns:dc="http://purl.org/dc/elements/1.1/"
   xmlns:cc="http://creativecommons.org/ns#"
   xmlns:rdf="http://www.w3.org/1999/02/22-rdf-syntax-ns#"
   xmlns:svg="http://www.w3.org/2000/svg"
   xmlns="http://www.w3.org/2000/svg"
   xmlns:sodipodi="http://sodipodi.sourceforge.net/DTD/sodipodi-0.dtd"
   xmlns:inkscape="http://www.inkscape.org/namespaces/inkscape"
   id="svg29"
   width="100%"
   height="100%"
   style="fill-rule:evenodd;clip-rule:evenodd;stroke-linecap:round;stroke-linejoin:round;stroke-miterlimit:1.5"
   version="1.1"
   viewBox="0 0 428 220"
   inkscape:version="0.92.3 (2405546, 2018-03-11)"
   sodipodi:docname="Workstation.svg"
   xml:space="preserve">
    <metadata
   id="metadata35">
        <rdf:RDF>
            <cc:Work
   rdf:about="">
                <dc:format>
                    image/svg+xml
                </dc:format>
                <dc:type
   rdf:resource="http://purl.org/dc/dcmitype/StillImage" />
            </cc:Work>
        </rdf:RDF>
    </metadata>
    <defs
   id="defs33" />
    <sodipodi:namedview
   id="namedview31"
   bordercolor="#666666"
   borderopacity="1"
   gridtolerance="10"
   guidetolerance="10"
   objecttolerance="10"
   pagecolor="#ffffff"
   showgrid="false"
   inkscape:current-layer="svg29"
   inkscape:cx="3.3605802"
   inkscape:cy="-75.734321"
   inkscape:pageopacity="0"
   inkscape:pageshadow="2"
   inkscape:window-height="2035"
   inkscape:window-maximized="1"
   inkscape:window-width="3840"
   inkscape:window-x="-13"
   inkscape:window-y="-11"
   inkscape:zoom="2.3251232" />
    <g
   id="g18"
   transform="translate(22.364407,-29.675847)">
        <path
   id="path2"
   d="m 77.338,40.882 c -8.219,-0.358 -12.972,3.648 -14.425,5.112 -1.273,0.288 -4.101,1.15 -6.931,3.507 -3.365,2.803 -7.422,8.356 -7.636,18.886 -0.077,3.73 -0.249,12.41 9.323,17.543 4.11,6.001 11.01,9.951 18.818,9.951 7.816,0 14.725,-3.959 18.83,-9.974 9.418,-5.077 9.307,-13.714 9.255,-17.43 C 104.365,53.154 92.91,41.548 77.338,40.882 Z m -0.851,51.383 c -10.574,0 -19.175,-8.601 -19.175,-19.173 v -5.34 c 4.957,-1.88 8.014,-7.106 9.515,-10.441 4.087,4.301 14.131,12.993 28.833,13.443 v 2.338 c 0,10.572 -8.601,19.173 -19.173,19.173 z M 98.661,78.33 c 0.396,-1.682 0.614,-3.435 0.614,-5.238 v -2.481 c 0.708,-0.272 1.198,-0.966 1.159,-1.765 -0.048,-0.997 -0.895,-1.757 -1.89,-1.719 C 79.508,68.041 67.782,52.935 67.668,52.784 l -0.004,0.002 c -0.22,-0.293 -0.53,-0.521 -0.908,-0.637 -0.953,-0.295 -1.962,0.243 -2.257,1.196 -0.033,0.108 -3.401,10.787 -10.299,11.464 -0.993,0.098 -1.719,0.982 -1.622,1.975 0.068,0.694 0.519,1.252 1.121,1.497 v 4.811 c 0,1.855 0.228,3.657 0.648,5.385 C 52.223,75.456 51.888,71.94 51.959,68.462 52.31,51.291 63.594,49.516 64.063,49.449 c 0.451,-0.058 0.87,-0.291 1.161,-0.637 0.16,-0.192 4.014,-4.658 11.961,-4.319 13.593,0.581 23.591,10.689 23.774,24.036 0.033,2.441 0.083,6.308 -2.298,9.801 z"
   style="fill-rule:nonzero"
   inkscape:connector-curvature="0" />
        <path
   id="path4"
   d="m 77.116,77.904 h -2.292 c -4.369,0 -7.924,3.553 -7.924,7.922 v 2.372 c 0,0.996 0.81,1.806 1.806,1.806 0.999,0 1.809,-0.81 1.809,-1.806 v -2.372 c 0,-2.376 1.933,-4.307 4.309,-4.307 h 2.292 c 2.376,0 4.309,1.931 4.309,4.307 v 2.372 c 0,0.996 0.81,1.806 1.807,1.806 0.998,0 1.809,-0.81 1.809,-1.806 v -2.372 c 0,-4.369 -3.556,-7.922 -7.925,-7.922 z"
   style="fill-rule:nonzero"
   inkscape:connector-curvature="0" />
        <path
   id="path6"
   d="m 78.101,84.906 h -4.262 c -0.996,0 -1.806,0.81 -1.806,1.807 0,0.998 0.81,1.808 1.806,1.808 h 4.262 c 0.999,0 1.806,-0.81 1.806,-1.808 0,-0.997 -0.807,-1.807 -1.806,-1.807 z"
   style="fill-rule:nonzero"
   inkscape:connector-curvature="0" />
        <path
   id="path8"
   d="m 49.855,100.297 c -8.767,8.959 -35.467,35.443 -35.467,35.443 -0.12,0.12 -0.224,0.249 -0.336,0.373 v -1.484 c 0,-2.162 -1.362,-4.006 -3.271,-4.735 0.117,-2.809 0.64,-4.418 1.188,-6.107 0.683,-2.103 1.392,-4.278 1.392,-8.447 0,-4.222 -0.86,-6.452 -1.62,-8.418 -0.706,-1.836 -1.375,-3.57 -1.375,-7.117 0,-3.546 0.669,-5.28 1.377,-7.116 0.758,-1.966 1.618,-4.195 1.618,-8.414 0,-4.22 -0.86,-6.45 -1.618,-8.416 -0.708,-1.836 -1.377,-3.57 -1.377,-7.117 0,-3.567 0.675,-5.436 1.389,-7.417 0.79,-2.185 1.603,-4.446 1.603,-8.645 0,-4.207 -0.816,-6.42 -1.607,-8.561 -0.581,-1.572 -1.136,-3.074 -1.321,-5.503 h 134.159 v 1.457 c 0,1.498 -0.459,2.135 -1.154,3.103 -0.821,1.138 -1.838,2.552 -1.838,5.214 0,2.662 1.017,4.077 1.838,5.214 0.695,0.966 1.154,1.606 1.154,3.103 0,1.495 -0.459,2.134 -1.154,3.1 -0.821,1.138 -1.838,2.552 -1.838,5.214 0,2.662 1.017,4.079 1.838,5.214 0.695,0.968 1.154,1.608 1.154,3.102 0,1.498 -0.459,2.137 -1.154,3.103 -0.821,1.138 -1.838,2.554 -1.838,5.216 0,2.663 1.017,4.079 1.838,5.214 0.334,0.465 0.61,0.856 0.812,1.3 -2.754,0.048 -4.982,2.299 -4.982,5.063 0,1.854 1.005,3.474 2.494,4.358 -0.76,0.995 -1.217,2.235 -1.217,3.581 v 12.191 c 0,2.633 1.73,4.867 4.111,5.634 v 9.572 h -0.886 c -0.999,0 -1.807,0.81 -1.807,1.809 0,0.999 0.808,1.807 1.807,1.807 h 5.386 c 0.999,0 1.809,-0.808 1.809,-1.807 0,-0.999 -0.81,-1.809 -1.809,-1.809 h -0.884 v -9.572 c 2.382,-0.767 4.11,-3.001 4.11,-5.634 v -12.191 c 0,-1.346 -0.458,-2.586 -1.218,-3.581 1.489,-0.884 2.494,-2.504 2.494,-4.358 0,-2.793 -2.273,-5.067 -5.068,-5.067 h -0.561 c -0.328,-1.557 -1.049,-2.56 -1.657,-3.407 -0.698,-0.968 -1.157,-1.606 -1.157,-3.103 0,-1.497 0.459,-2.137 1.157,-3.102 0.818,-1.138 1.838,-2.554 1.838,-5.217 0,-2.661 -1.02,-4.076 -1.838,-5.213 -0.698,-0.968 -1.157,-1.606 -1.157,-3.103 0,-1.495 0.459,-2.135 1.157,-3.102 0.818,-1.136 1.838,-2.552 1.838,-5.212 0,-2.663 -1.02,-4.079 -1.838,-5.214 -0.698,-0.968 -1.157,-1.608 -1.157,-3.103 0,-1.497 0.459,-2.135 1.157,-3.102 0.818,-1.138 1.838,-2.552 1.838,-5.215 v -1.457 h 14.195 v 23.575 c 0,0.999 0.809,1.806 1.806,1.806 0.999,0 1.809,-0.807 1.809,-1.806 V 38.616 h 9.143 v 7.413 c 0,0.999 0.81,1.807 1.806,1.807 0.999,0 1.809,-0.808 1.809,-1.807 v -7.413 h 30.231 c 0.998,0 1.808,-0.81 1.808,-1.809 0,-0.996 -0.81,-1.807 -1.808,-1.807 H 4.024 c -0.999,0 -1.808,0.811 -1.808,1.807 0,0.999 0.809,1.809 1.808,1.809 h 2.785 c 0.195,3.075 0.883,4.944 1.551,6.755 0.712,1.927 1.385,3.748 1.385,7.309 0,3.568 -0.675,5.437 -1.389,7.418 -0.789,2.184 -1.605,4.444 -1.605,8.644 0,4.22 0.859,6.45 1.617,8.417 0.708,1.835 1.377,3.569 1.377,7.114 0,3.547 -0.669,5.28 -1.377,7.116 -0.758,1.967 -1.617,4.197 -1.617,8.416 0,4.218 0.859,6.448 1.617,8.416 0.708,1.836 1.377,3.57 1.377,7.117 0,3.596 -0.589,5.411 -1.215,7.332 -0.612,1.888 -1.243,3.837 -1.366,7.233 -1.898,0.733 -3.248,2.572 -3.248,4.723 v 18.997 c 0,2.157 1.356,3.999 3.261,4.728 v 2.5 c 0,0.999 0.809,1.809 1.806,1.809 0.999,0 1.809,-0.81 1.809,-1.809 v -2.5 c 1.902,-0.729 3.26,-2.571 3.26,-4.728 v -3.892 c 0.112,0.125 0.216,0.254 0.336,0.372 1.979,1.981 4.581,2.97 7.181,2.97 2.602,0 5.202,-0.989 7.183,-2.97 L 46.66,132.195 v 31.688 h -4.058 c 0.411,-0.679 0.652,-1.472 0.652,-2.322 v -4.253 c 0,-2.483 -2.02,-4.501 -4.502,-4.501 -2.481,0 -4.499,2.018 -4.499,4.501 v 4.253 c 0,0.85 0.241,1.643 0.651,2.322 h -3.901 c 0.745,-0.955 1.193,-2.153 1.193,-3.455 0,-3.109 -2.527,-5.636 -5.635,-5.636 h -7.087 c -3.107,0 -5.634,2.527 -5.634,5.636 0,1.302 0.449,2.5 1.192,3.455 H 6.059 C 2.718,163.883 0,166.601 0,169.942 v 2.552 c 0,3.342 2.718,6.06 6.059,6.06 h 0.692 v 63.101 c 0,0.999 0.81,1.807 1.808,1.807 h 197.805 c 0.999,0 1.809,-0.808 1.809,-1.807 v -63.531 c 2.238,-0.893 3.827,-3.077 3.827,-5.63 v -2.552 c 0,-3.341 -2.718,-6.059 -6.062,-6.059 h -3.49 c 0.625,-0.953 0.992,-2.091 0.992,-3.314 v -1.701 c 0,-3.341 -2.718,-6.061 -6.059,-6.061 h -3.686 c -3.341,0 -6.061,2.72 -6.061,6.061 v 1.701 c 0,1.223 0.367,2.361 0.992,3.314 h -3.31 c 0.86,-0.843 1.398,-2.016 1.398,-3.314 v -3.401 c 0,-2.1 -1.399,-3.873 -3.314,-4.448 0.658,-0.953 1.044,-2.106 1.044,-3.35 0,-3.264 -2.653,-5.918 -5.918,-5.918 h -2.268 c -3.264,0 -5.917,2.654 -5.917,5.918 0,3.262 2.653,5.918 5.917,5.918 h 1.571 c -0.256,0.576 -0.401,1.211 -0.401,1.88 v 3.401 c 0,1.298 0.535,2.471 1.397,3.314 h -6.348 c 0.748,-1.007 1.194,-2.251 1.194,-3.599 v -1.983 c 0,-3.341 -2.718,-6.061 -6.059,-6.061 h -0.262 c 1.088,-0.876 1.786,-2.218 1.786,-3.721 v -2.553 c 0,-2.637 -2.147,-4.784 -4.784,-4.784 -2.64,0 -4.785,2.147 -4.785,4.784 v 2.553 c 0,1.823 1.026,3.411 2.53,4.217 -2.154,0.933 -3.664,3.073 -3.664,5.565 v 1.983 c 0,1.348 0.447,2.592 1.194,3.599 h -53.188 v -31.43 l 17.377,17.289 c 1.979,1.981 4.58,2.971 7.182,2.971 2.6,0 5.202,-0.99 7.181,-2.971 3.96,-3.958 3.96,-10.404 0,-14.364 0,0 -25.994,-25.4 -34.288,-34.288 -2.432,-2.603 -5.611,-4.613 -9.442,-4.613 H 84.382 c -0.924,0 -1.698,0.697 -1.798,1.615 -0.281,2.614 -2.932,4.664 -6.035,4.664 -3.102,0 -5.751,-2.047 -6.032,-4.664 -0.099,-0.918 -0.875,-1.615 -1.798,-1.615 H 58.652 c -3.399,0.002 -6.587,1.563 -8.797,3.82 z m 141.394,58.571 c 0,-1.35 1.099,-2.446 2.446,-2.446 h 3.686 c 1.348,0 2.444,1.096 2.444,2.446 v 1.701 c 0,1.347 -1.096,2.446 -2.444,2.446 h -3.686 c -1.347,0 -2.446,-1.099 -2.446,-2.446 z m -10.206,-1.7 c 0,-0.568 0.461,-1.029 1.028,-1.029 0.566,0 1.028,0.461 1.028,1.029 v 3.401 c 0,0.567 -0.462,1.028 -1.028,1.028 -0.567,0 -1.028,-0.461 -1.028,-1.028 z m -7.088,-7.798 c 0,-1.271 1.033,-2.303 2.303,-2.303 h 2.268 c 1.271,0 2.305,1.032 2.305,2.303 0,1.271 -1.034,2.303 -2.305,2.303 h -2.268 c -1.27,0 -2.303,-1.032 -2.303,-2.303 z m -10.774,-3.402 c 0,-0.645 0.525,-1.171 1.171,-1.171 0.643,0 1.169,0.526 1.169,1.171 v 2.551 c 0,0.645 -0.526,1.171 -1.169,1.171 -0.646,0 -1.171,-0.526 -1.171,-1.171 z m -1.134,12.333 c 0,-1.35 1.098,-2.446 2.446,-2.446 h 3.119 c 1.348,0 2.444,1.096 2.444,2.446 v 1.985 c 0,1.348 -1.096,2.445 -2.444,2.445 h -3.119 c -1.348,0 -2.446,-1.097 -2.446,-2.445 z m -13.282,-44.94 c 0,1.271 -1.034,2.305 -2.305,2.305 -1.269,0 -2.302,-1.034 -2.302,-2.305 V 101.17 c 0,-1.269 1.033,-2.303 2.302,-2.303 1.271,0 2.305,1.034 2.305,2.303 z m 1.275,-20.13 c 0,0.801 -0.652,1.454 -1.453,1.454 h -4.253 c -0.8,0 -1.452,-0.653 -1.452,-1.454 0,-0.8 0.652,-1.452 1.452,-1.452 h 4.253 c 0.801,0 1.453,0.652 1.453,1.452 z M 7.532,153.623 v -18.994 c 0,-0.802 0.652,-1.454 1.451,-1.454 0.802,0 1.454,0.652 1.454,1.454 v 18.994 c 0,0.802 -0.652,1.453 -1.454,1.453 -0.799,0 -1.451,-0.651 -1.451,-1.453 z m 30.336,3.685 c 0,-0.488 0.396,-0.886 0.884,-0.886 0.49,0 0.887,0.398 0.887,0.886 v 4.253 c 0,0.488 -0.397,0.887 -0.887,0.887 -0.488,0 -0.884,-0.399 -0.884,-0.887 z m -18.394,1.099 h 7.089 c 1.113,0 2.019,0.906 2.019,2.021 0,1.112 -0.906,2.02 -2.019,2.02 h -7.089 c -1.113,0 -2.021,-0.908 -2.021,-2.02 0,-1.115 0.908,-2.021 2.021,-2.021 z m 86.965,-49.656 8.269,8.271 -8.269,8.269 z m 29.184,38.436 c -1.236,1.236 -2.878,1.915 -4.625,1.915 -1.748,0 -3.391,-0.679 -4.63,-1.919 l -18.4,-18.308 9.296,-9.299 18.359,18.359 c 2.55,2.552 2.55,6.7 0,9.252 z M 46.66,126.1 l -8.759,-8.76 8.759,-8.762 z m -20.465,21.449 c -1.235,1.235 -2.878,1.915 -4.626,1.915 -1.746,0 -3.389,-0.68 -4.624,-1.915 -2.553,-2.552 -2.553,-6.701 0,-9.253 l 18.4,-18.401 9.251,9.254 z m 76.629,16.334 H 50.275 v -10.977 h 22.312 c 0.999,0 1.807,-0.807 1.807,-1.806 0,-0.999 -0.808,-1.807 -1.807,-1.807 H 50.275 v -40.825 c 0,-4.618 3.759,-8.376 8.377,-8.376 h 8.611 c 1.014,3.156 3.904,5.52 7.48,6.123 v 33.09 c 0,0.999 0.81,1.808 1.806,1.808 0.999,0 1.809,-0.809 1.809,-1.808 v -33.09 c 3.574,-0.603 6.466,-2.967 7.478,-6.123 h 8.611 c 2.507,0 4.751,1.11 6.288,2.861 0.077,0.133 0.166,0.262 0.28,0.376 l 0.127,0.125 c 1.05,1.399 1.682,3.134 1.682,5.014 z m -92.458,75.964 v -7.017 h 33.065 c 0.999,0 1.809,-0.808 1.809,-1.807 0,-0.998 -0.81,-1.808 -1.809,-1.808 H 10.366 v -5.316 h 128.751 c 0.999,0 1.809,-0.808 1.809,-1.806 0,-0.999 -0.81,-1.807 -1.809,-1.807 H 10.366 v -19.777 h 21.158 c 0.997,0 1.806,-0.808 1.806,-1.806 0,-0.999 -0.809,-1.807 -1.806,-1.807 H 10.366 v -18.34 h 160.967 v 15.042 c 0,0.999 0.81,1.809 1.806,1.809 0.999,0 1.809,-0.81 1.809,-1.809 v -15.042 h 13.822 v 43.537 c 0,0.998 0.807,1.806 1.806,1.806 0.999,0 1.807,-0.808 1.807,-1.806 v -43.537 h 12.175 v 61.291 z m 195.572,-72.349 c 1.35,0 2.447,1.097 2.447,2.444 v 2.552 c 0,1.35 -1.097,2.446 -2.447,2.446 H 6.059 c -1.347,0 -2.444,-1.096 -2.444,-2.446 v -2.552 c 0,-1.347 1.097,-2.444 2.444,-2.444 z"
   style="fill-rule:nonzero"
   inkscape:connector-curvature="0" />
        <path
   id="path10"
   d="m 81.705,107.445 c -0.996,0 -1.806,0.81 -1.806,1.808 v 5.103 c 0,0.998 0.81,1.808 1.806,1.808 0.999,0 1.809,-0.81 1.809,-1.808 v -5.103 c 0,-0.998 -0.81,-1.808 -1.809,-1.808 z"
   style="fill-rule:nonzero"
   inkscape:connector-curvature="0" />
        <path
   id="path12"
   d="m 81.705,119.565 c -0.996,0 -1.806,0.81 -1.806,1.809 v 3.969 c 0,0.998 0.81,1.806 1.806,1.806 0.999,0 1.809,-0.808 1.809,-1.806 v -3.969 c 0,-0.999 -0.81,-1.809 -1.809,-1.809 z"
   style="fill-rule:nonzero"
   inkscape:connector-curvature="0" />
        <path
   id="path14"
   d="m 81.705,131.26 c -0.996,0 -1.806,0.811 -1.806,1.809 v 3.686 c 0,0.999 0.81,1.807 1.806,1.807 0.999,0 1.809,-0.808 1.809,-1.807 v -3.686 c 0,-0.998 -0.81,-1.809 -1.809,-1.809 z"
   style="fill-rule:nonzero"
   inkscape:connector-curvature="0" />
        <path
   id="path16"
   d="m 68.495,107.318 h -13.61 c -0.997,0 -1.806,0.81 -1.806,1.807 v 5.671 c 0,0.999 0.809,1.808 1.806,1.808 h 13.61 c 0.999,0 1.806,-0.809 1.806,-1.808 v -5.671 c 0,-0.997 -0.807,-1.807 -1.806,-1.807 z m -1.809,5.671 h -9.993 v -2.056 h 9.993 z"
   style="fill-rule:nonzero"
   inkscape:connector-curvature="0" />
    </g>
    
    <clipPath
   id="_clip1">
        <rect
   id="rect22"
   width="114.524"
   height="114.524"
   x="119.51"
   y="0" />
    </clipPath>
    <g
   id="g27"
   clip-path="url(#_clip1)"
   transform="translate(170.31356,6.4512712)">
        <path
   id="path25"
   d="m 233.149,50.672 c -0.18,-1.603 -2.048,-2.808 -3.663,-2.808 -5.224,0 -9.859,-3.066 -11.804,-7.81 -1.984,-4.859 -0.704,-10.524 3.188,-14.094 1.226,-1.121 1.375,-2.997 0.348,-4.3 -2.674,-3.395 -5.712,-6.462 -9.03,-9.119 -1.299,-1.041 -3.206,-0.897 -4.333,0.35 -3.397,3.763 -9.5,5.161 -14.216,3.194 -4.906,-2.065 -8.003,-7.038 -7.698,-12.375 0.099,-1.678 -1.127,-3.136 -2.798,-3.33 -4.259,-0.494 -8.554,-0.508 -12.825,-0.034 -1.65,0.183 -2.877,1.606 -2.821,3.263 0.184,5.285 -2.947,10.17 -7.806,12.161 -4.66,1.903 -10.72,0.516 -14.11,-3.214 -1.12,-1.229 -2.995,-1.38 -4.302,-0.361 -3.415,2.68 -6.522,5.75 -9.22,9.117 -1.052,1.309 -0.897,3.206 0.34,4.331 3.968,3.593 5.247,9.307 3.187,14.222 -1.968,4.687 -6.833,7.705 -12.402,7.705 -1.808,-0.058 -3.094,1.156 -3.293,2.8 -0.502,4.281 -0.507,8.645 -0.025,12.961 0.18,1.609 2.105,2.804 3.739,2.804 4.964,-0.126 9.727,2.945 11.728,7.81 1.993,4.859 0.711,10.522 -3.187,14.096 -1.22,1.121 -1.376,2.993 -0.346,4.294 2.647,3.373 5.687,6.443 9.016,9.123 1.306,1.052 3.205,0.905 4.338,-0.344 3.411,-3.771 9.513,-5.167 14.21,-3.196 4.921,2.059 8.015,7.032 7.713,12.371 -0.1,1.678 1.131,3.14 2.796,3.33 2.179,0.255 4.37,0.381 6.567,0.381 2.086,0 4.171,-0.114 6.257,-0.345 1.653,-0.183 2.877,-1.608 2.821,-3.265 -0.19,-5.283 2.947,-10.168 7.8,-12.155 4.691,-1.916 10.724,-0.513 14.116,3.21 1.127,1.227 2.989,1.376 4.302,0.361 3.409,-2.674 6.51,-5.741 9.221,-9.117 1.052,-1.307 0.903,-3.206 -0.34,-4.333 -3.968,-3.591 -5.254,-9.308 -3.194,-14.218 1.937,-4.623 6.622,-7.727 11.661,-7.727 l 0.704,0.018 c 1.636,0.133 3.14,-1.127 3.336,-2.796 0.504,-4.285 0.51,-8.645 0.025,-12.961 z m -56.551,25.462 c -10.484,0 -19.011,-8.528 -19.011,-19.012 0,-10.484 8.527,-19.013 19.011,-19.013 10.486,0 19.012,8.529 19.012,19.013 0,10.484 -8.526,19.012 -19.012,19.012 z"
   inkscape:connector-curvature="0" />
    </g>
</svg>