<?xml version="1.0" encoding="UTF-8" standalone="no"?><!DOCTYPE svg PUBLIC "-//W3C//DTD SVG 1.1//EN" "http://www.w3.org/Graphics/SVG/1.1/DTD/svg11.dtd"><svg width="100%" height="100%" viewBox="0 0 120 120" version="1.1" xmlns="http://www.w3.org/2000/svg" xmlns:xlink="http://www.w3.org/1999/xlink" xml:space="preserve" xmlns:serif="http://www.serif.com/" style="fill-rule:evenodd;clip-rule:evenodd;stroke-linecap:round;stroke-linejoin:round;stroke-miterlimit:4.5;"><rect x="0" y="0" width="119.659" height="119.659" style="fill:none;"/><g><path d="M63.054,83.458l-18.669,5.002l-8.346,-49.815l9.335,-2.501l17.68,47.314Z" style="fill:#6f6f6e;stroke:#fff;stroke-width:2.25px;"/><path d="M43.703,44.331l-3.742,-13.966l28.529,-3.903l1.871,6.983l-26.658,10.886Z" style="fill:#6f6f6e;stroke:#fff;stroke-width:2.25px;"/><path d="M38.319,29.683c4.308,-1.154 8.742,1.406 9.896,5.713c1.154,4.308 -1.406,8.742 -5.713,9.896c-4.308,1.155 -8.742,-1.405 -9.896,-5.713c-1.155,-4.308 1.406,-8.742 5.713,-9.896Z" style="fill:#6f6f6e;stroke:#fff;stroke-width:2.25px;"/><path d="M81.545,15.011l-15.324,4.106l5.785,21.591l15.324,-4.106" style="fill:none;stroke:#6f6f6e;stroke-width:6px;"/><path d="M73.918,98.014c0,-2.187 -0.868,-4.284 -2.414,-5.83c-1.547,-1.547 -3.644,-2.415 -5.83,-2.415c-6.259,0 -14.823,0 -21.07,0c-2.175,0 -4.261,0.864 -5.799,2.401c-1.537,1.538 -2.401,3.624 -2.401,5.799c0,3.45 0,6.679 0,6.679l37.514,0c0,0 0,-3.201 0,-6.634Z" style="fill:#6f6f6e;stroke:#6f6f6e;stroke-width:2.25px;"/><circle cx="55.161" cy="88.46" r="11.06" style="fill:#6f6f6e;stroke:#fff;stroke-width:2.25px;"/></g></svg>